<svg width="42" height="46" viewBox="0 0 42 46" fill="none" xmlns="http://www.w3.org/2000/svg">
<path d="M38.5417 0V13.5417H35.4167L34.1229 8.36458C33.8976 7.46317 33.3775 6.66293 32.6451 6.09105C31.9128 5.51917 31.0104 5.20847 30.0813 5.20833H15.625V20.8333H23.5542C24.5405 20.8335 25.4949 20.4837 26.2476 19.8462C27.0002 19.2088 27.5023 18.325 27.6646 17.3521L28.125 14.5833H31.25V30.2083H28.125L27.7542 28.35C27.5653 27.4051 27.0548 26.5548 26.3095 25.944C25.5642 25.3332 24.6303 24.9996 23.6667 25H15.625V38.5417C15.625 39.0942 15.8445 39.6241 16.2352 40.0148C16.6259 40.4055 17.1558 40.625 17.7083 40.625H30.5125C31.673 40.625 32.8106 40.3018 33.7978 39.6917C34.7851 39.0817 35.5829 38.2088 36.1021 37.1708L38.5417 32.2917H41.6667L39.5833 45.8333H0V41.6667L4.50833 40.9167C4.9955 40.8357 5.43806 40.5843 5.75706 40.2073C6.07606 39.8303 6.25076 39.3522 6.25 38.8583V6.97292C6.24977 6.47978 6.07462 6.00271 5.75571 5.62657C5.4368 5.25044 4.99479 4.99962 4.50833 4.91875L0 4.16667V0H38.5417Z" fill="black"/>
</svg>
