<?xml version="1.0" encoding="utf-8"?>
<!-- Generator: Adobe Illustrator 23.1.0, SVG Export Plug-In . SVG Version: 6.00 Build 0)  -->
<svg version="1.1" id="Слой_1" xmlns="http://www.w3.org/2000/svg" xmlns:xlink="http://www.w3.org/1999/xlink" x="0px" y="0px"
	 viewBox="0 0 127.5 145" style="enable-background:new 0 0 127.5 145;" xml:space="preserve">
<style type="text/css">
	.st0{fill:#477856;}
	.st1{fill:#F5F5F5;}
</style>
<g>
	<path class="st1" d="M58.9,39c4.8,3.4,9.7,6.1,15.5,7.2c4,0.7,7-0.5,8.8-4.3c2.7-5.7,3.2-11.7,2.8-17.9c-0.2-2.9-0.6-5.9-1.7-8.7
		c-0.4-1-0.7-2.3-2-1.9c-1.3,0.4-1.1,1.6-0.8,2.7c1.8,7.3,2,14.5-0.2,21.7c-1.4,4.4-3.1,5.4-7.6,4.4c-5.5-1.4-10.4-4.1-14.7-7.8
		c-2.8-2.4-3.5-5.8-2.4-8.8c2.9-7.9,6.3-15.9,13.5-20.8c9.2-6.3,19.3-6,29.1-1c2.9,1.5,5,4.2,6.1,7.2c1,2.8,3.1,4,5.7,4.5
		c4.3,0.9,8.7,1.7,13.1,2.5c2.8,0.5,4,1.4,3.4,4c-1,4.9-1.7,10.1-5.6,13.9c-3.6,3.6-8,5.1-12.9,5.4c-1.3,0.1-2.7,0.1-4,0
		c-2.3-0.1-3.6,1-4.3,3c-1.3,4.2-2,8.3,1.1,12.2c2.6,3.3,2.2,7.3,1.3,11.1c-0.4,1.8-0.6,3.2,0.3,4.9c1.9,3.6,1.9,7.7,1.6,11.6
		c-0.3,2.9-1.1,3.4-4.1,3.4c-1.3,0-2.6,0.2-4,0.3c-0.7,0.1-1.3,0.2-1.3,1.1c0,0.9,0.5,1.4,1.3,1.5c1.4,0.1,2.8,0.1,4.2,0.1
		c1.4,0,1.9,0.5,1.9,1.9c0,2.3-0.6,4.6-1.4,6.7c-2.4,6.4-5.9,12-10.3,17.4c0-2.4,0-4.7,0-7.1c0-5.4,0.9-10.9-0.3-16.3
		c-0.9-4-3.1-7.3-6.5-9.6c-4-2.7-8.4-3.5-12.9-1.1c-4.6,2.4-6.5,6.5-7,11.5c-0.4,3.9,1.5,7.4,2.1,11.1c1.1,6.3,1.9,12.7,2.9,19.1
		c0.2,1.3-0.2,2.3-1.1,3.1c-0.8,0.8-1.7,1.6-2.5,2.5c-1.2,1.2-1.4,2.2,0.7,2.7c2.6,0.6,4.6,2.3,5.8,4.7c1.3,2.8,0.5,4.6-2.5,5.5
		c-0.8,0.2-1.6,0.1-2.4,0.3c-2.5,0.5-4,0.5-4.1-2.9c0-2.5-2.3-4.3-4.5-5.6c-0.9-0.5-1.8-1.1-2.9-1.7c1.9-1.5,2.9-3.4,3.4-5.5
		c0.7-2.7,0.1-3.8-2.4-4.7c-4.5-1.6-9-3.2-13.4-4.9c-4.9-1.9-9.8-3.9-14.1-7.1c-0.4-0.3-0.8-0.7-1.3-0.3c-0.6,0.5-0.3,1,0,1.5
		c0.6,1.3,1.8,2.2,2.9,2.9c7.1,4.7,15,7.5,22.9,10.3c2.9,1,3,1.1,1.5,3.9c-0.8,1.6-2.2,2.6-3.7,3.6c-1.3,0.8-2.9,1.3-3.9,2.6
		c1.2,1.2,2.4,0.4,3.6,0.3c4.4-0.2,7.3,1.8,8.2,5.5c0.6,2.4-0.5,3.9-2.9,4c-8.4,0.3-16.9,0.3-25.3-0.1c-2.1-0.1-4.1-0.7-5.7-2
		c-1.6-1.4-3.6-1.9-5.5-2.5c-9.9-2.7-17.2-8.3-19.5-18.8c-1.1-5.1-1.3-10.3,0.7-15.3c0.6-1.5,1.3-2.9,2.8-3.6
		c1.8-0.9,2.6-0.4,2.7,1.6c0.1,3.9-0.4,7.8,0.7,11.6c1.8,6.3,5.8,10.8,11.9,13.7c0-4-0.5-7.8,0.3-11.7c0.7-3.5,1.7-6.9,3.2-10
		c0.5-1,0.7-1.6-0.1-2.5c-1-1.2-1.3-2.7-0.8-4.2c1.3-4.8,4.3-8.7,7-12.7c0.8-1.2,1.4-0.3,1.9,0.3c6,6.9,13.7,11.3,21.8,15.1
		c1.3,0.6,3,1.9,3.9,0.1c0.7-1.7-1.5-1.8-2.6-2.3c-6.1-3.2-12.4-6.3-17.5-11.2c-6.3-6.1-6.1-6-1.5-12.7c1.7-2.5,3.8-4.8,5.8-7.4
		c3.1,3,6,6,9.4,8.4c2.5,1.7,5,3.3,7.6,4.6c0.7,0.3,1.6,1,2.2,0.1c0.7-1.1-0.2-1.7-1-2.1c-4.1-2.6-8-5.5-11.6-8.9
		c-1-0.9-1.8-1.9-2.7-2.9c-1.5-1.7-1.5-3.5-0.1-5.4c2.5-3.2,4.9-6.5,7.8-9.3c0.6-0.6,1.1-1.2,2-0.2c6.7,8.1,16.2,11.7,25.7,15.1
		c4.4,1.6,8.9,2.8,13.5,3.7c2.9,0.6,3.7-0.2,3-3c-0.5-1.7,0.1-3.3,0.5-4.8c1.2-4.5,0.5-6.5-3.7-8.8c-4.1-2.2-8.3-4.2-12.6-6.2
		c-0.8-0.4-2.1-1.4-2.8,0c-0.6,1.3,0.6,1.8,1.5,2.4c4,2.4,8.3,4.1,12.5,6c2.2,1,2.7,2.4,2.2,4.5c-0.1,0.4-0.3,0.8-0.3,1.2
		c-0.1,1.7,0.2,4-1,4.8c-1,0.6-3.1-0.3-4.7-0.7c-10.5-2.8-20.5-6.8-29.2-13.4c-4-3-4.6-5.1-2.9-9.8C57.1,43.2,58,41.1,58.9,39z"/>
	<path class="st1" d="M88,107.7c-0.1,7.6,0.5,15.2,1.1,22.8c0.2,2.5,1.2,4.8,3.5,6.2c0.9,0.6,1.8,1.2,2.5,2c1.2,1.4,1.2,3,0.7,4.7
		c-0.5,1.7-2,1.4-3.3,1.4c-1.9,0-3.8-0.1-5.7,0.1c-3.9,0.4-6.1-1.5-7.8-4.8c-3.2-6.5-4.9-13.4-6.3-20.4c-0.9-4.8-1.5-9.6-2.1-14.4
		c-0.4-2.6-1.5-5-2.1-7.6c-1.2-5.1,1.6-11,5.9-12.6c5.4-1.9,11.8,2.4,13.2,8.7C88.6,98.4,87.6,103.1,88,107.7z"/>
	<path class="st1" d="M101.3,108.5c0.6,6,1.2,11.5,1.7,16.9c0.1,0.6,0.1,1.1,0.2,1.7c0.3,3.2,1.2,5.5,5,6.4c3.3,0.8,5.1,5.3,4.2,8.6
		c-0.2,0.8-0.7,1.1-1.4,1.2c-3.5,0.6-7.1,0.4-10.6,0.4c-0.8,0-0.8-0.5-0.9-1.1c-0.4-3.1-1.7-5.6-4.3-7.4c-3.2-2.3-2.5-5.9-3.1-9
		c-0.7-3.4,0-6.2,3-8.7C97.7,115.3,99.2,112,101.3,108.5z"/>
</g>
</svg>
