<?xml version="1.0" encoding="utf-8"?>
<!-- Generator: Adobe Illustrator 23.1.0, SVG Export Plug-In . SVG Version: 6.00 Build 0)  -->
<svg version="1.1" id="Слой_1" xmlns="http://www.w3.org/2000/svg" xmlns:xlink="http://www.w3.org/1999/xlink" x="0px" y="0px"
	 viewBox="0 0 149.5 145" style="enable-background:new 0 0 149.5 145;" xml:space="preserve">
<style type="text/css">
	.st0{fill:#477856;}
	.st1{fill:#F5F5F5;}
</style>
<g>
	<path class="st1" d="M106.5,144.9c-8.9,0.7-9.9-4.1-11.3-11c-0.4-2-0.3-3.9-2.8-4.7c-0.9-0.3-1.2-1.5-1.3-2.5
		c-0.8-4.5-1.3-8.9-1.5-13.4c-0.2-3.3-0.7-6.6-1.6-9.8c-0.3-0.9-0.5-2.4-2-2.1c-1.3,0.3-1.1,1.6-1,2.5c0.3,3.5,0.7,7,1.1,10.5
		c0.2,1.9-0.2,2.6-2.4,2.5c-11-0.6-21.9-0.9-32.9-1.5c-10.4-0.6-19.9-3.7-28.1-10.5c-2-1.7-4.3-3.1-6.3-4.9
		c-1.5-1.4-1.8-2.4-0.6-4.4c5.8-9.4,13.9-16.1,23.1-21.9c9.9-6.3,20.6-10.9,30.8-16.7c3.4-1.9,3.6-2,5.9,1.4
		c4.6,6.8,10.9,11.7,17.7,16.1c2.1,1.4,4.2,1.7,6.6,0.5c2.4-1.2,4.8-2.2,7.3-3.4c1-0.5,2.1-1,1.5-2.4c-0.6-1.5-2-1.3-3-0.8
		c-2.1,0.9-4,2-6,3.2c-1.5,0.9-2.8,1-4.4,0c-7.2-4.6-13.9-9.6-18.8-16.7c-1.5-2.2-1.8-4.1-0.3-6.4c1.6-2.6,3.1-5.3,4.5-8.1
		c0.6-1.2,1.1-1.5,2.4-0.7c12,7.4,22.7,16.5,33,26.1c2.2,2,1.9,4.3,1.7,6.8c-0.5,8.5-2,16.7-5.1,24.6c-0.7,1.9-1.3,3.8-2.4,5.5
		c-3.3,5.2-2.8,10.8-2.4,16.5c0.2,2.2,0.5,4.5,0.8,6.7c0.1,0.7,0.1,1.4-0.1,2c-1.9,3.8-1.7,5.5,1.3,8.5c1.4,1.4,2.8,2.8,2.9,5.1
		c0.1,2.9-0.5,3.6-3.4,3.7C108.4,144.9,107.4,144.9,106.5,144.9z"/>
	<path class="st1" d="M106.7,0c5.5,0.4,11.6,1.2,16.1,6.3c1.1,1.3,2.1,2.7,2.7,4.2c1.2,2.9,3.5,4.3,6.4,5.1
		c4.5,1.2,9.2,1.7,13.8,2.5c2.6,0.5,4.2,1.8,3.7,4.4c-1.1,6-2.4,12-8.1,15.7c-3.9,2.6-8.4,3.1-12.9,3.5c-3.7,0.3-4.9,1.1-5.8,4.6
		c-0.6,2.4-0.9,4.9-0.9,7.4c0,2.5,0,5-0.5,7.5c-0.5,2.8-1.6,3.3-3.8,1.5c-1.5-1.2-3-2.5-4.3-3.9c-4.4-4.7-9.4-8.6-14.8-11.9
		c-0.4-0.3-1-0.5-0.9-1.1c0.1-0.8,0.9-0.6,1.4-0.7c7.1-0.8,9.4-3.3,9.8-10.8c0.4-6.1-0.4-12.2-2-18.1c-0.1-0.3-0.2-0.6-0.3-0.9
		c-0.4-0.9-0.8-2.2-2-1.8c-1.3,0.3-1.2,1.5-1,2.7c0.7,4,1.2,8.1,1.7,12.1c0.3,3,0.2,6-0.7,8.9c-1.1,3.4-3.3,4.9-6.7,4.1
		c-6.9-1.7-12.7-5.4-17.7-10.3c-1.6-1.6-2.2-3.7-1.5-6c2.2-7.8,5.7-14.8,12-20.1C94.8,1.3,100.3,0.1,106.7,0z"/>
	<path class="st1" d="M20.9,107.3c5.6,4.6,11.5,8,18.4,9.7c4.9,1.2,9.9,1.5,14.9,1.8c4.3,0.2,8.7,0.4,13.1,0.5
		c1.3,0,1.7,0.6,1.8,1.9c0.1,2.4-0.6,4.6-1.6,6.7c-0.7,1.6-0.3,2.2,1.3,2c3.9-0.6,7.5,2.7,8.7,7.1c0.8,3.2-0.6,4.9-3.8,5
		c-2.3,0-4.5,0-6.8,0c-1,0-1.7-0.1-1.8-1.4c-0.6-4.9-3.4-7.7-8.3-8.7c-3.3-0.7-3.2-0.7-1.3-3.3c0.8-1,1.5-2,2.2-3.1
		c0.6-0.9,0.7-2-0.5-2.5c-0.9-0.4-2-0.4-2.5,0.8c-1.4,3.2-3.6,5.8-6,8.3c-0.9,0.9-0.7,1.5,0.6,1.5c1.8,0,3.5-0.1,5.3,0
		c4.9,0.2,8.5,4.1,7.8,8.2c-0.3,2-1.4,3.2-3.5,3.2c-9.1-0.1-18.3,0.6-27.4-0.4c-2.6-0.3-4.9-1.2-6.6-3.2c-1-1.2-2.1-1.4-3.5-1.4
		c-3,0-6-0.2-9-0.9c-8.5-2.2-14.1-12-11.7-20.4c0.2-0.6,0.4-1.1,0.7-1.6c0.5-0.9,1.3-1.3,2.3-1.1c1,0.2,1.3,1,1.4,1.8
		c0.4,2.7,1.5,5.1,3.1,7.3c1.5,2.1,3.5,3.3,5.9,3.9c3.5,0.8,5-0.3,4.5-3.9c-0.7-5.3,0.2-10.5,1.6-15.6
		C20.3,108.7,20.6,108.1,20.9,107.3z"/>
	<path class="st1" d="M117,142.9c0.7-3.3-0.6-5.9-2.9-7.9c-1.8-1.6-2.5-3.3-2.5-5.8c0-5.7-0.6-11.4-0.9-17c-0.1-1.1,0.1-2.2,0.6-3.2
		c6.5-12.4,9.6-25.7,10.2-39.6c0-0.4,0.1-0.8,0.1-1.2c0-0.1,0.1-0.1,0.3-0.2c1.9,2.1,2.2,4.9,2.3,7.4c0.3,8.6-0.5,17-4.4,24.9
		c-0.4,0.9-0.6,1.7-0.5,2.6c0.4,6.9,0.3,13.9,1,20.8c0.1,1.3,0.3,2.5-0.7,3.8c-1.1,1.6,0,3.4,2.1,3.9c3.7,1,6.2,3.2,7,7
		c0.6,2.6-0.7,4.3-3.4,4.4C122.5,143,119.8,142.9,117,142.9z"/>
</g>
</svg>
