<?xml version="1.0" encoding="utf-8"?>
<!-- Generator: Adobe Illustrator 23.1.0, SVG Export Plug-In . SVG Version: 6.00 Build 0)  -->
<svg version="1.1" id="Слой_1" xmlns="http://www.w3.org/2000/svg" xmlns:xlink="http://www.w3.org/1999/xlink" x="0px" y="0px"
	 viewBox="0 0 129.9 145" style="enable-background:new 0 0 129.9 145;" xml:space="preserve">
<style type="text/css">
	.st0{fill:#477856;}
	.st1{fill:#F5F5F5;}
</style>
<g>
	<path class="st1" d="M45,134c3.4,0.2,6.3,0,8.9,1.1c3.1,1.3,4.8,3.5,5,6.5c0.1,2.3-0.8,3.4-3.2,3.4c-6.1-0.1-12.3-0.1-18.4-0.3
		c-3.3-0.1-6.7,0.2-10-0.5c-2.5-0.5-4.6-1.4-6.3-3.3c-1.1-1.3-2.5-2.1-4.2-2.6c-14.7-4.2-18.8-17.1-16.4-29.6c0.4-2,1.2-4,2.8-5.5
		c0.8-0.8,1.6-1.6,2.8-1.1c1.2,0.5,1.3,1.6,1.2,2.7c-0.1,4.1-0.1,8.2,1.5,12.1c1.5,3.8,3.7,6.8,7.5,9.1c0.1-3.6-0.2-6.9,0.3-10.2
		c1.4-8.9,5.8-16.4,11-23.6c5.7-7.7,12.5-14.4,18.7-21.7c3.1-3.6,6.2-7.3,9.2-11c0.9-1.1,1.4-1.5,2.9-0.7c5.3,3.2,10.8,6,16.6,8.3
		c1.3,0.5,1.9,1.3,1.8,2.8c-0.2,2.8,0.5,5.5,1.5,8.1c1.1,2.9,3,4.2,6.2,4.1c3.8-0.1,6.9-1.6,9.3-4.6c1.7-2.1,7.4-2.7,9.6-1.1
		c0.7,0.5,0.9,1.2,1,1.9c2.3,13.4-2.4,24.8-10.5,35.1c-0.1,0.2-0.4,0.2-1,0.5c0-2.1,0-4,0-5.9c0-0.9,0-1.9-0.2-2.7
		c-0.1-0.5-0.5-1.1-1.2-1.1c-0.8,0.1-1.1,0.6-1.1,1.4c-0.8,8.8-0.5,17.6-0.4,26.4c0,1.9,1.6,3,3.1,4c1.6,1.1,3,2.3,3.6,4.3
		c0.6,2.2-0.5,4-2.7,4.1c-3,0.1-6,0.1-9.1,0c-2-0.1-3.1-1.5-4-3.1c-2.7-5-3.9-10.6-5.1-16.1c-1.3-5.7-2.3-11.5-2-17.4
		c0-0.3,0-0.7-0.1-1c-0.4-1.1-0.1-2.8-1.9-2.7c-1.9,0-1.7,1.7-1.7,2.8c0.1,4.5,0.1,9.1,1,13.5c0.4,2,0.3,3.5-1.5,4.8
		c-1.1,0.8-2.1,1.9-3,3c-1.5,1.7-1.2,2.5,1,3.1c4.4,1.3,6.3,3.7,6.3,7.5c0,2.1-1,3.1-2.9,3.4c-0.9,0.1-1.8,0-2.8,0.1
		c-3.6,0.4-6.5,0.2-7.4-4.5c-0.6-3-3.3-4.8-6.2-5.6c-2.1-0.6-2-1.2-0.6-2.6c7.1-7.3,6.1-20.8-2-27c-1-0.8-2.1-1.3-3.3-1.8
		c-1-0.4-1.9-0.5-2.4,0.5c-0.5,0.9,0.3,1.6,1,2.1c1.7,1.3,3.6,2.4,5,4.2c5.5,6.9,4.3,16.4-3,22.5C48.2,131.5,46.9,132.5,45,134z"/>
	<path class="st1" d="M77.4,63.9c-6-2.2-11.7-4.9-17.2-8.1c-1.6-0.9-2-2.4-1.6-4.1c0.7-3.2,1.8-6.2,3.1-9.2c0.5-1.2,1.1-1.1,2-0.5
		c2.8,1.7,5.7,3.2,8.8,4.2c8.8,2.6,12-0.6,13.6-8.4c1.4-7.1,0.9-14.3-0.4-21.5c-0.1-0.5-0.2-1-0.4-1.4c-0.3-0.8-0.5-1.8-1.6-1.6
		c-1.2,0.2-1.1,1.2-1.1,2.2c0.4,5.5,0.7,11,0.6,16.6c0,2.1-0.3,4.2-0.9,6.2c-1.2,4.2-3.6,5.7-7.7,4.4C69,40.9,64,38.1,59.8,34
		c-2.5-2.4-3.5-5.4-2.4-8.9c2-6.5,5.1-12.5,9.3-17.9c3.7-4.6,8.9-6.4,14.5-7c5.1-0.5,10.2-0.3,15.1,1.4c3.6,1.3,6.9,3.3,8.4,6.8
		c2.3,5.5,6.9,6.8,12,7.3c3.2,0.3,6.3,0.6,9.5,1c2.3,0.3,4.2,2.3,3.7,4.6c-1.3,5.8-2.3,11.8-7.2,16.1c-3.7,3.3-8.2,4.3-13,4.4
		c-5.1,0.2-7.6,1.6-8.2,6.8c-0.3,2.5-0.5,5-0.8,7.5c-0.1,0.8-0.2,1.7-0.5,2.4c-0.7,2.3-2.4,3.1-4.4,1.8c-2.9-1.8-5.9-3.4-9.1-4.6
		c-3.8-1.4-6-0.5-7.8,3.1C78.2,60.4,77.7,62.1,77.4,63.9z"/>
	<path class="st1" d="M81,68.1c0-1.9,0-3.8,0.6-5.7c1-3,2.3-3.7,5.3-2.7c1.8,0.6,3.6,1.4,4.9,2.8c1.1,1.2,2.4,1.7,4,0.8
		c0.8-0.5,1.8-0.5,2.7-0.1c2.4,1.1,3.7,0.1,4.8-2c1.4-2.7,3.8-4.1,6.7-4.8c1.5-0.4,2.4,0,3.2,1.2c0.7,1,1.1,2.1,1.3,3.2
		c0.6,4.5,0.7,9-0.7,13.4c-1,3.1-2.6,3.6-5.5,2.1c-1.4-0.8-2.5-1.9-3.7-3c-1.3-1.2-2.5-2.4-4.5-0.8c-0.9,0.7-2.4,0.5-3.4,0.1
		c-2.1-0.9-3.4,0.1-4.3,1.8c-1.1,1.9-2.7,3.4-4.9,4.1c-2.9,1-4.4,0.3-5.4-2.6C81.2,73.3,81,70.7,81,68.1z"/>
	<path class="st1" d="M102.6,107.2c0.4,6.2,0.8,12.1,1.2,17.9c0.1,1.7,0.4,3.3,0.6,5c0.2,1.2,1,1.7,2.1,2.1c3.3,1.1,5.6,3.3,6.5,6.7
		c0.8,2.7-0.4,4.2-3.2,4.3c-2.7,0.1-5.4,0.3-8,0.4c-0.9,0-1.7,0.1-1.6-1.2c0.3-3.2-1.6-5.4-3.8-7.2c-2.2-1.7-2.7-3.9-2.8-6.6
		c-0.4-6,0.2-11.4,5-15.7C100.2,111.5,101.1,109.4,102.6,107.2z"/>
</g>
</svg>
