<?xml version="1.0" encoding="utf-8"?>
<!-- Generator: Adobe Illustrator 23.1.0, SVG Export Plug-In . SVG Version: 6.00 Build 0)  -->
<svg version="1.1" id="Слой_1" xmlns="http://www.w3.org/2000/svg" xmlns:xlink="http://www.w3.org/1999/xlink" x="0px" y="0px"
	 viewBox="0 0 129.5 145" style="enable-background:new 0 0 129.5 145;" xml:space="preserve">
<style type="text/css">
	.st0{fill:#477856;}
	.st1{fill:#F5F5F5;}
</style>
<g>
	<path class="st1" d="M62.8,144.7c-16.7,0-33.4,0.7-50.1-0.2c-8.3-0.4-14-7.2-12.4-15.4c2.6-14,5.5-27.9,8.3-41.9
		c1.5-7.1,3.2-14.1,4.8-21.2c1.4-5.8,3.7-7.5,9.6-7.6c2.8-0.1,5.6-0.3,8.4-0.5c1.2-0.1,1.6,0.3,1.4,1.6c-0.4,4.4-0.9,8.6-3.4,12.5
		c-3,4.7-2.4,10.7,0.7,14.2c3,3.3,7,4.4,11,3c4-1.4,7.2-5.6,7.4-9.8c0.1-2-0.1-4.1-0.9-6c-2-4.6-0.9-9.3-0.5-14
		c0.1-1.2,0.9-1.3,1.8-1.3c4.7-0.1,9.3-0.1,14-0.2c2.4,0,1.5,1.8,1.3,2.7c-0.4,2.5-1.1,4.9-1.6,7.4c-2.9,15.1,8.5,30.6,23.9,32.2
		c3.1,0.3,6.2,0.8,9.3-0.1c3-0.8,4.7-2.8,5.2-5.9c0.4-2.5,0.9-5,1.6-7.4c0.7-2.5,2.8-3.5,5.1-3.5c9.4,0.1,8.2-1.9,10.5,7.9
		c2.8,11.6,4.3,23.5,6.2,35.3c0.4,2.2,1,4.3,0.8,6.5c-0.7,6.3-5.7,11.2-12.3,11.3c-11.6,0.3-23.2,0.2-34.9,0.2
		C73,144.8,67.9,144.7,62.8,144.7z M101.4,127.7c-0.1,2.8-0.5,5.6-0.1,8.4c0.2,1,0,2.5,1.6,2.3c1.4-0.1,1.1-1.5,1.1-2.4
		c0.5-6.6,1-13.2,1.4-19.7c0.4-5.2,0.7-10.5,1-15.7c0.1-1.1,0-2.5-1.4-2.6c-1.4,0-1.4,1.3-1.5,2.5
		C102.5,109.5,101.5,118.6,101.4,127.7z"/>
	<path class="st1" d="M110.3,79.3c-1.6,0.1-3.3-0.1-4.8,0.3c-3.8,0.9-6.1,3.4-7,7.2c-0.4,1.7-0.7,3.5-1,5.2
		c-0.7,3.5-1.8,4.6-5.4,4.7c-16,0.5-29.3-12.2-26.1-28.5c1.2-6.1,0.8-12.2,1.5-18.3c0.7-6.1,2.4-12.1,5.1-17.6
		c2.2-4.4,5.1-4.5,7.9-0.4c1.8,2.7,3.1,5.6,4.2,8.6c0.3,0.9,0.6,1.7,1,2.6c0.5,1.1,0.9,2.9,2.4,2.4c1.6-0.5,0.4-2.1,0.2-3.1
		c-0.4-2.6-0.2-3.1,2.4-3.2c6-0.3,11.3,1.8,15.8,5.7c2.4,2,4,4.6,5.2,7.4c1.2,2.8,3.2,4,6.1,4.2c2.6,0.2,5.2,0.4,7.9,0.5
		c3,0.1,4.2,1,3.9,4c-1.3,10.6-5,18.7-17.6,18.4C111.3,79.4,110.8,79.4,110.3,79.3C110.3,79.4,110.3,79.3,110.3,79.3z M105.3,58.9
		c-0.1-1.8-0.7-3.2-2.8-3.1c-2.2,0.1-2.8,1.7-2.9,3.4c-0.1,1.6,0.7,3.1,2.6,3C104.2,62.2,105.2,60.9,105.3,58.9z"/>
	<path class="st1" d="M102.2,37.1c-2.5-0.9-4.9-1.9-7.5-2.1C93.2,35,94,33.8,94,33.1c0.4-10.7-6.1-20.4-15.8-23.5
		C66.5,5.9,54.3,12,49.5,24.1c-1.9,4.8-2.3,9.8-3,14.8c-1.1,7.9-2,15.7-3.2,23.6c-0.7,4.2-1,8.3,0.7,12.4c1.2,2.9,1.1,6-0.9,8.7
		c-2,2.7-5,3.6-7.8,2.3c-2.7-1.3-4.6-5.2-3.9-8.4c0.3-1.2,0.6-2.6,1.4-3.5c3.8-4.7,3.4-10.4,4.1-15.9c1.5-11.2,0.9-22.7,4.1-33.6
		C44.4,12.6,51.7,4.3,63.8,1C78.6-3,93.7,5.1,99.9,20C102.1,25.3,103.1,32,102.2,37.1z"/>
</g>
</svg>
