<?xml version="1.0" encoding="utf-8"?>
<!-- Generator: Adobe Illustrator 23.1.0, SVG Export Plug-In . SVG Version: 6.00 Build 0)  -->
<svg version="1.1" id="Слой_1" xmlns="http://www.w3.org/2000/svg" xmlns:xlink="http://www.w3.org/1999/xlink" x="0px" y="0px"
	 viewBox="0 0 100 100" style="enable-background:new 0 0 100 100;" xml:space="preserve">
<style type="text/css">
	.st0{fill:#477856;}
</style>
<g>
	<path class="st0" d="M65.1,97c-2.9,0-6-0.5-9-1.5c-4.2-1.4-8.3-1.4-12.4,0c-5.3,1.8-10.8,2.1-16.3,0.5c-4.4-1.3-8.2-3.6-10.5-7.7
		c-2.8-4.9-2.4-9.8,0-14.8c1.4-2.9,3.4-5.3,5.9-7.4c4.4-3.6,8-7.9,11-12.7c3.8-6.2,9.6-9.3,17-9c7.3,0.3,12.7,4,16.1,10.5
		c2,3.9,4.7,7.2,8.3,9.8c4.1,2.9,7.3,6.6,8.9,11.5c2.4,7.3-0.7,14.6-7.5,18.1C73.1,96.2,69.3,97,65.1,97z"/>
	<path class="st0" d="M46.4,22.7c0.2,3.9-0.1,7.7-1.7,11.4c-0.9,2.1-2.1,4-3.8,5.6c-4.9,4.8-11.7,4.7-16.5-0.2
		c-3.2-3.3-4.7-7.4-5.2-11.9c-0.4-3.8,0.4-7.3,2.1-10.6c2.6-5.2,6.2-9.6,11.3-12.6C34.2,3.6,35.7,3,37.5,3c2,0,3.5,0.8,4.7,2.2
		c1.5,1.8,2.3,4,2.8,6.3C46,15.2,46.2,18.9,46.4,22.7z"/>
	<path class="st0" d="M80.7,26.4c-0.2,4.4-1.5,8.9-4.8,12.6c-5.3,5.9-13,5.6-18-0.5c-2.6-3.2-4-7-4.2-11.1c-0.3-5.6,0-11.2,1.4-16.7
		c0.4-1.4,0.9-2.8,1.6-4c1.9-3.4,4.9-4.5,8.6-3.2c2.6,1,4.8,2.6,6.8,4.6C76,12,79,16.5,80.3,21.9C80.7,23.2,80.8,24.6,80.7,26.4z"/>
	<path class="st0" d="M100,48.9c-0.2,7.4-3.3,13.1-9.9,16.6c-4.4,2.3-9.2,1.5-12.2-1.8c-2-2.2-2.9-4.9-3.2-7.8
		c-0.3-3.2,0.3-6.3,1.6-9.3c2-4.4,4.2-8.5,7.7-12c0.8-0.8,1.7-1.5,2.7-2.1c2.7-1.5,5.4-1.2,7.7,0.9c1.8,1.7,3,3.9,3.9,6.2
		C99.4,42.5,100,45.9,100,48.9z"/>
	<path class="st0" d="M0,48.8c0.1-4.8,1.2-9.5,4-13.5c0.5-0.7,1-1.3,1.7-1.9c2.2-2,4.9-2.3,7.5-0.9c1.9,1,3.4,2.5,4.7,4.2
		c3.3,4.3,6,8.9,7.1,14.2c0.6,2.8,0.5,5.7-0.4,8.5c-2.1,6.5-8.6,9.3-14.7,6.1C3.6,62.2,0.4,56.8,0,49.7C0,49.4,0,49.1,0,48.8z"/>
</g>
</svg>
