<?xml version="1.0" encoding="utf-8"?>
<!-- Generator: Adobe Illustrator 23.1.0, SVG Export Plug-In . SVG Version: 6.00 Build 0)  -->
<svg version="1.1" id="Слой_1" xmlns="http://www.w3.org/2000/svg" xmlns:xlink="http://www.w3.org/1999/xlink" x="0px" y="0px"
	 viewBox="0 0 425.2 233.9" style="enable-background:new 0 0 425.2 233.9;" xml:space="preserve">
<style type="text/css">
	.st0{fill:#F8F5EC;}
</style>
<g>
	<g>
		<polygon class="st0" points="12.9,17.4 0,17.4 0,128 62.1,128 62.1,119.9 12.9,119.9 		"/>
		<polygon class="st0" points="173.6,128 202.9,42.9 193.6,42.9 170.1,114.6 147.9,42.9 133.3,42.9 162.4,128 		"/>
		<path class="st0" d="M210.3,119.1c6.5,7.1,15.4,10.6,26.7,10.6c6.1,0,11.3-1.1,15.5-3.2c4.2-2.2,7.4-4.5,9.5-6.9
			c2.2-2.4,3.2-3.9,3.2-4.3l-4.9-4.1c0,0.3-0.9,1.5-2.7,3.3c-1.8,1.9-4.3,3.6-7.6,5.3c-3.2,1.6-7.1,2.5-11.7,2.5
			c-16.6,0-24.9-11.5-24.9-34.4h51.6c0.1-0.3,0.3-1.2,0.5-2.6c0.2-1.4,0.3-3.1,0.3-5.3c0-12.4-2.6-21.9-7.9-28.7
			c-5.3-6.8-12.8-10.1-22.6-10.1c-10.8,0-19.3,4.1-25.5,12.3c-6.2,8.2-9.4,19.4-9.4,33.7C200.5,101.4,203.8,112,210.3,119.1z
			 M220,56.4c3.6-5.3,8.8-7.9,15.5-7.9c12.7,0,19.1,9.6,19.1,28.9l-0.2,3.2h-40.7C214.2,69.8,216.3,61.7,220,56.4z"/>
		<polygon class="st0" points="287.2,0 274.9,0.7 274.9,128 287.2,128 		"/>
		<path class="st0" d="M386.8,124.4c-0.1,0.1-0.3,0.3-0.7,0.7c-0.6,0.5-1.5,1-2.6,1.5c-1,0.5-2.3,0.7-3.8,0.7
			c-4.2,0-6.1-2.3-6.1-7.4V96.7h-6.5v24.1c0,3.8,1,6.7,2.9,8.6c1.9,2,4.7,2.9,8.1,2.9c2.9,0,5.2-0.5,6.9-1.4
			c0.9-0.5,1.7-1.1,2.3-1.6l0.5,2.3h5.6v-35h-6.5V124.4z"/>
		<path class="st0" d="M424.8,126.8l-1.1,0.5c-0.2,0.1-0.5,0.2-1,0.3c-0.5,0.1-0.9,0.2-1.3,0.2c-0.2,0-0.4-0.3-0.5-0.5
			c-0.2-0.3-0.4-1.1-0.4-3.2v-16.3c0-4.3-1-7.3-2.9-9.1c-1.9-1.7-4.9-2.6-9-2.6c-1.5,0-3,0.2-4.5,0.7c-1.4,0.5-2.7,0.9-3.6,1.5
			c-0.9,0.5-1.5,0.9-1.8,1.1l-0.4,0.3l0.9,4.4l1-0.6c0.2-0.1,0.7-0.4,1.5-0.9c0.8-0.4,1.7-0.9,2.9-1.3c1.1-0.4,2.2-0.6,3.3-0.6
			c2.3,0,3.9,0.5,4.8,1.5c0.9,1,1.3,3,1.3,5.9v2.8c-12.5,1.5-18.9,5.7-18.9,12.5c0,2.8,1,5.1,3,6.7c1.9,1.6,4.5,2.4,7.6,2.4
			c2.2,0,4.1-0.4,5.6-1.2c1.5-0.8,2.6-1.6,3.4-2.5c0.2,1,0.6,1.8,1,2.3c0.8,0.9,1.9,1.4,3.3,1.4c0.9,0,1.9-0.2,3.2-0.6
			c1.2-0.4,2-0.6,2.3-0.7l0.6-0.2L424.8,126.8z M414.1,123.6c-0.1,0.1-0.2,0.4-0.7,1.1c-0.5,0.7-1.3,1.5-2.4,2.1
			c-1,0.6-2.2,0.9-3.7,0.9c-1.7,0-3-0.4-4-1.3c-0.9-0.9-1.4-2.1-1.4-3.8c0-2.5,1.1-4.3,3.4-5.4c2.3-1.1,5.3-2,8.8-2.4V123.6z"/>
		<path class="st0" d="M120.5,121.9c1.4-1.2,2.7-2.3,3.9-3.8c6.3-7.8,9.4-18.6,9.4-32.6c0-14.1-3.1-25-9.3-32.7
			c-6.2-7.7-15.2-11.6-27-11.6s-20.8,3.9-27,11.6c-6.2,7.7-9.3,18.6-9.3,32.7s3.1,25,9.3,32.7c4.8,6,11.3,9.6,19.5,10.9v103.2H103
			v-38.8h14c6.1,0,11.9-1.2,17.3-3.7c5.4-2.4,9.8-6.4,13.2-11.9c3.4-5.5,5.1-12.6,5.1-21.2c0-11.6-3.1-20.3-9.4-26.2
			C137.5,125.3,129.9,122.5,120.5,121.9z M80,113.1c-3.7-6.1-5.6-15.3-5.6-27.7c0-12.4,1.9-21.6,5.6-27.7c3.7-6.1,9.6-9.1,17.5-9.1
			c7.9,0,13.8,3.1,17.5,9.2c3.7,6.1,5.6,15.3,5.6,27.6c0,12.4-1.9,21.6-5.6,27.7c-2.8,4.5-6.7,7.3-11.7,8.5c-4,0.9-7.9,1-11.6,0
			C86.7,120.4,82.8,117.6,80,113.1z M115.1,186.3H103v-57c0.6-0.1,1.2-0.1,1.8-0.2h10.4c7.6,0,13.5,2.3,17.5,6.9
			c4.1,4.6,6.1,11.7,6.1,21.2C138.9,176.6,131,186.3,115.1,186.3z"/>
		<path class="st0" d="M223.5,225.9c-1.5,0.4-2.7,0.6-3.7,0.6c-1.3,0-2.3-0.8-3.1-2.4c-0.9-1.6-1.3-4.7-1.3-9.2v-41.7
			c0-10.3-2.3-17.5-6.8-21.6c-4.5-4.1-11.7-6.1-21.5-6.1c-3.6,0-7.2,0.6-10.8,1.7c-3.6,1.1-6.5,2.3-8.9,3.6
			c-2.3,1.3-3.8,2.1-4.3,2.6l1.4,7c0.6-0.3,1.9-1.1,4-2.3c2.1-1.2,4.7-2.3,7.7-3.4c3.1-1.1,6.1-1.6,9-1.6c6.6,0,11.2,1.5,13.8,4.4
			c2.6,3,3.9,8.5,3.9,16.5v9c-32.1,3.4-48.2,13.4-48.2,30.1c0,6.6,2.3,11.7,6.8,15.4c4.5,3.7,10.6,5.5,18,5.5
			c5.3,0,9.8-0.9,13.4-2.8c3.6-1.9,6.3-3.9,8.1-6c1.8-2.2,2.7-3.5,2.7-3.9h0.2c0.3,4.8,1.3,8.1,2.9,10c1.6,1.9,3.9,2.8,6.8,2.8
			c2,0,4.5-0.5,7.5-1.4c2.9-0.9,4.9-1.5,5.8-1.9l-0.5-5.8C226,225.2,225,225.5,223.5,225.9z M202.9,214c0,0.3-0.8,1.6-2.3,3.7
			c-1.5,2.2-3.8,4.1-6.7,6c-3,1.8-6.5,2.7-10.6,2.7c-4.9,0-8.7-1.3-11.6-3.8c-2.8-2.6-4.3-6.3-4.3-11.2c0-7.1,3.3-12.4,10-15.7
			c6.6-3.3,15.1-5.5,25.4-6.6V214z"/>
		<path class="st0" d="M374.3,189.1c-3.1-1.6-7.2-3.3-12.2-5c-4.3-1.6-7.7-3-10.3-4.3c-2.6-1.2-4.7-3-6.4-5.2
			c-1.7-2.2-2.6-5-2.6-8.3c0-4,1.6-7.3,4.9-9.9c3.2-2.6,7.5-3.9,12.7-3.9c3.1,0,6,0.5,8.9,1.5c2.9,1,5.2,2.1,7.1,3.1
			c1.8,1.1,3,1.8,3.4,2.1l2-7.3c-0.6-0.3-1.9-1-3.9-2.1c-2-1.1-4.7-2.1-8.1-3.1s-6.8-1.4-10.5-1.4c-8.3,0-15.1,2.1-20.3,6.4
			c-5.3,4.3-7.9,10-7.9,17.3c0,4.9,1,8.9,3.1,11.9c2.1,3.1,4.6,5.4,7.6,6.9c2.9,1.5,6.9,3.2,11.9,5c4.3,1.5,7.7,2.8,10.1,4
			c2.4,1.2,4.5,2.9,6.1,5c1.6,2.2,2.5,4.9,2.5,8.2c0,4.5-1.6,8.4-4.9,11.6c-3.2,3.2-8,4.8-14.4,4.8c-4.3,0-8.1-0.8-11.2-2.5
			c-3.2-1.6-5.7-3.4-7.5-5.4c-1.8-1.9-2.7-3-2.7-3.2l-4.3,6c0,0.3,1,1.6,3.1,3.7c2.1,2.2,5.2,4.2,9.4,6c4.1,1.9,9.2,2.8,15.2,2.8
			c9.9,0,17.4-2.5,22.5-7.4c5.1-4.9,7.7-11.1,7.7-18.5c0-4.9-1.1-8.8-3.2-11.9C380,193.1,377.4,190.7,374.3,189.1z"/>
		<path class="st0" d="M365.2,42.9h-9l-22.8,71.2l-25.2-71.2h-14.6l33.4,86.1c0,0,0,0,0,0c0,0,0,0,0,0l-25.7,84.1l-20.3-66.1h-9.7
			l-20.3,69.5l-16-69.5h-13.8l22.3,85.1h11.1l20.1-68.6l19.9,68.6h10.9l31.4-105.8L365.2,42.9z"/>
	</g>
	<g>
		<path class="st0" d="M55.7,217.6c-2.3,0-4.8-0.4-7.2-1.2c-3.3-1.2-6.6-1.1-9.9,0c-4.3,1.4-8.6,1.7-13,0.4c-3.5-1-6.5-2.9-8.4-6.1
			c-2.2-3.9-1.9-7.9,0-11.8c1.1-2.3,2.8-4.3,4.8-5.9c3.5-2.9,6.4-6.3,8.8-10.2c3.1-5,7.7-7.4,13.6-7.2c5.9,0.3,10.2,3.2,12.8,8.4
			c1.6,3.1,3.7,5.8,6.6,7.8c3.3,2.3,5.9,5.3,7.1,9.2c1.9,5.8-0.5,11.7-6,14.5C62.1,217,59.1,217.7,55.7,217.6z"/>
		<path class="st0" d="M40.7,158.2c0.2,3.1-0.1,6.2-1.3,9.1c-0.7,1.7-1.7,3.2-3,4.5c-3.9,3.8-9.3,3.8-13.2-0.1
			c-2.6-2.6-3.7-5.9-4.1-9.5c-0.3-3,0.3-5.8,1.7-8.5c2.1-4.2,4.9-7.7,9-10c1.2-0.7,2.5-1.1,3.9-1.2c1.6,0,2.8,0.6,3.8,1.8
			c1.2,1.5,1.8,3.2,2.3,5C40.4,152.3,40.6,155.2,40.7,158.2z"/>
		<path class="st0" d="M68.2,161.2c-0.1,3.5-1.2,7.1-3.8,10.1c-4.2,4.7-10.4,4.5-14.4-0.4c-2.1-2.6-3.2-5.6-3.4-8.9
			c-0.2-4.5,0-8.9,1.1-13.3c0.3-1.1,0.7-2.2,1.3-3.2c1.5-2.7,3.9-3.6,6.9-2.5c2.1,0.8,3.9,2.1,5.4,3.7c3.1,3.1,5.5,6.7,6.6,11
			C68.1,158.7,68.2,159.7,68.2,161.2z"/>
		<path class="st0" d="M83.6,179.2c-0.1,5.9-2.6,10.5-7.9,13.3c-3.5,1.8-7.3,1.2-9.7-1.5c-1.6-1.8-2.3-3.9-2.5-6.3
			c-0.2-2.6,0.3-5.1,1.3-7.4c1.6-3.5,3.4-6.8,6.1-9.6c0.6-0.6,1.4-1.2,2.2-1.6c2.2-1.2,4.3-1,6.1,0.7c1.5,1.4,2.4,3.1,3.1,5
			C83.1,174.1,83.6,176.8,83.6,179.2z"/>
		<path class="st0" d="M3.7,179.1c0.1-3.9,0.9-7.6,3.2-10.8c0.4-0.6,0.8-1.1,1.3-1.5c1.8-1.6,3.9-1.9,6-0.7c1.5,0.8,2.7,2,3.7,3.3
			c2.6,3.4,4.8,7.1,5.7,11.3c0.5,2.3,0.4,4.6-0.3,6.8c-1.7,5.2-6.9,7.4-11.7,4.9c-5-2.6-7.6-7-7.9-12.6
			C3.7,179.6,3.7,179.4,3.7,179.1z"/>
	</g>
</g>
</svg>
